# xmcd CD database file
#
# Track frame offsets:
#	150
#	19180
#	37161
#
# Disc length: 739 seconds
#
# Revision: 1
# Processed by: cddbd v1.5.2PL0 Copyright (c) Steve Scherf et al.
# Submitted via: CDex 1.70beta2
#
DISCID=2002e103
DTITLE=シド - 2℃目の彼女
DYEAR=2009
DGENRE=Visual_Rock
TTITLE0=2℃目の彼女
TTITLE1=泣きだした女と虚無感
TTITLE2=お別れの歌（Live at 日本武道館 2008.11.2.）
EXTD=YEAR: 2009
EXTT0=
EXTT1=
EXTT2=
PLAYORDER=
